PathFileType	4	(X/Y/Z)	C:\Users\Biomechanik\SynologyDrive\AlexP\Athlete_03\Athlete_3_25_03_31\Walking_05\marker_experimental.trc
DataRate	CameraRate	NumFrames	NumMarkers	Units	OrigDataRate	OrigDataStartFrame	OrigNumFrames
200.000000	200.000000	4	53	mm	200.000000	85	342
Frame#	Time	GLAB			RFHD			LFHD			C7			T6			SPINMOL			SPINM2			SPINM3			T12			BELTOL			BELT2			BELT3			SACROL			SACR2			SACR3			LTHOL			LTH2			LTH3			LSHAOL			LSHA2			LSHA3			LHEE			LTOE			LM5			RTHOL			RTH2			RTH3			RSHAOL			RSHA2			RSHA3			RHEE			RTOE			RM5			STRN			XIPH			LACR			LUAOL			LUA2			LUA3			LLAOL			LLA2			LLA3			LWRR			LWRU			RACR			RUAOL			RUA2			RUA3			RLAOL			RLA2			RLA3			RWRR			RWRU			
		X1	Y1	Z1	X2	Y2	Z2	X3	Y3	Z3	X4	Y4	Z4	X5	Y5	Z5	X6	Y6	Z6	X7	Y7	Z7	X8	Y8	Z8	X9	Y9	Z9	X10	Y10	Z10	X11	Y11	Z11	X12	Y12	Z12	X13	Y13	Z13	X14	Y14	Z14	X15	Y15	Z15	X16	Y16	Z16	X17	Y17	Z17	X18	Y18	Z18	X19	Y19	Z19	X20	Y20	Z20	X21	Y21	Z21	X22	Y22	Z22	X23	Y23	Z23	X24	Y24	Z24	X25	Y25	Z25	X26	Y26	Z26	X27	Y27	Z27	X28	Y28	Z28	X29	Y29	Z29	X30	Y30	Z30	X31	Y31	Z31	X32	Y32	Z32	X33	Y33	Z33	X34	Y34	Z34	X35	Y35	Z35	X36	Y36	Z36	X37	Y37	Z37	X38	Y38	Z38	X39	Y39	Z39	X40	Y40	Z40	X41	Y41	Z41	X42	Y42	Z42	X43	Y43	Z43	X44	Y44	Z44	X45	Y45	Z45	X46	Y46	Z46	X47	Y47	Z47	X48	Y48	Z48	X49	Y49	Z49	X50	Y50	Z50	X51	Y51	Z51	X52	Y52	Z52	X53	Y53	Z53	

86	0.425	-120.6556091308595	1596.0458984375	292.7101440429688	-169.6363677978517	1624.999877929688	356.7087707519531	-164.2817687988282	1618.295532226562	219.3027191162109	-349.9814758300783	1439.29345703125	289.4048767089843	-409.6271362304689	1270.688354492188	288.0116271972656	-417.1574096679689	1230.426147460938	267.1299133300781	-422.2842712402345	1223.247802734375	316.8947448730468	-413.1002502441407	1166.398803710938	283.3801879882812	-390.0191650390626	1100.41943359375	284.4083557128906	-426.7558593750001	1066.015380859375	264.7526855468749	-427.7141113281251	1063.150390625	315.1581420898437	-431.7417297363282	1003.520202636719	285.2004699707031	-411.6131591796876	954.4442138671875	255.8265228271484	-414.4288940429689	950.4659423828125	307.1962280273437	-426.692840576172	892.8292846679688	276.2384338378906	-200.7674865722657	685.32666015625	78.77858734130855	-220.3432617187501	610.535400390625	94.5447616577148	-174.7097625732422	629.794189453125	87.53366851806638	-162.2447052001954	367.0820617675781	85.19496154785153	-218.6903839111329	314.3814086914062	104.1202774047851	-169.435531616211	306.5173034667969	94.86763763427732	-261.7535095214844	126.3989181518555	191.9915924072265	-48.44824218750004	69.70321655273438	184.3131561279297	-98.74924468994142	48.69634628295898	92.58187103271483	-364.3425598144532	691.5729370117188	456.1320495605468	-315.2854003906252	629.9756469726562	465.2638549804687	-361.3013000488282	631.5682983398438	445.4737854003906	-423.1117248535157	342.6774597167969	429.0755004882812	-397.5431213378907	267.9255065917969	428.5502624511718	-441.7301025390626	285.4862976074219	413.2853088378906	-489.5193176269532	72.18028259277341	298.5031127929686	-282.4812927246094	44.35294723510741	327.2750854492187	-341.8613586425782	39.05801773071287	423.7703552246093	-179.0727996826173	1337.88720703125	288.2101135253906	-163.6981048583986	1193.954956054688	290.3188171386718	-277.7670898437501	1400.474609375	115.1523513793945	-304.7700195312501	1248.552856445312	12.55945873260492	-326.9625549316407	1189.066772460938	-5.751790046691955	-278.7887268066407	1188.745849609375	9.459664344787546	-318.9968566894532	990.2943725585938	-45.79728698730474	-364.4651794433594	927.5734252929688	-29.20131111145026	-319.5885620117188	928.6710205078125	-50.93978500366217	-311.7782592773438	825.9560546875	-64.54341125488287	-262.8721008300782	815.941162109375	-3.640879154205371	-264.5864562988283	1398.9873046875	456.5883789062499	-273.5719604492189	1255.601196289062	564.2531127929688	-244.7775115966799	1196.552978515625	572.2823486328125	-293.6818237304689	1197.58544921875	588.6300048828125	-212.350784301758	984.1987915039062	616.9163208007812	-138.4723510742189	955.1878662109375	627.504150390625	-179.5022735595705	931.052734375	611.4385986328125	-113.0592727661135	869.0390625	607.3001098632812	-80.09491729736344	878.017578125	533.183349609375	
87	0.43	-113.6839523315431	1595.165893554688	292.1216430664062	-162.6194915771486	1624.200805664062	356.1136169433593	-157.3463897705079	1617.328735351562	218.7075500488281	-343.0459899902345	1438.54443359375	289.0985412597656	-402.9248962402345	1270.06689453125	287.6965942382812	-410.5018920898439	1229.813720703125	266.7851562499999	-415.712127685547	1222.615966796875	316.5395202636718	-406.5485839843751	1165.772827148438	283.0056762695312	-383.5626525878907	1099.73974609375	283.9942626953124	-420.190887451172	1065.40576171875	264.2080993652343	-421.2593383789064	1062.598999023438	314.6119689941406	-425.3827209472657	1002.945678710938	284.7180480957031	-405.3012084960939	953.844970703125	255.4183502197265	-408.2131347656251	950.0684204101562	306.8014831542968	-420.6155090332032	892.3570556640625	276.0286865234374	-193.5883331298829	684.3497924804688	79.22842407226558	-213.000961303711	609.541748046875	95.1902694702148	-167.4246978759766	628.9078979492188	88.2562561035156	-150.7164764404297	364.1794128417969	85.60195159912107	-205.2857208251954	309.5567321777344	104.3427963256836	-155.9488830566407	303.3472290039062	94.94266510009763	-242.1210327148438	119.7549133300781	191.0773315429687	-26.910665512085	70.58442687988281	182.9813842773438	-76.51836395263673	48.18299484252929	91.23231506347655	-359.9723510742189	691.7636108398438	456.4169921874999	-311.405487060547	629.7123413085938	465.2997741699218	-357.4598388671876	631.7264404296875	445.6386108398437	-421.5960998535157	343.161865234375	429.0048522949218	-396.4384155273438	268.2736206054688	428.4622802734374	-440.5419311523438	286.0663452148438	413.2394714355468	-489.3271789550782	72.82445526123044	298.4750671386718	-282.4545288085938	44.35549545288085	327.2414855957031	-341.8132934570313	39.07901763916013	423.7601623535156	-172.2923736572267	1336.8359375	287.9154052734374	-157.1702575683595	1192.880493164062	290.1792907714843	-271.0009765625001	1399.476928710938	114.8046340942382	-298.9692382812501	1247.54833984375	12.34095001220698	-321.4961547851563	1188.115356445312	-5.832204341888486	-273.2904968261719	1187.635864257812	9.179550170898388	-315.0489501953126	989.4845581054688	-45.73577117919928	-360.9494934082032	927.1436157226562	-28.89182090759284	-316.2110290527344	927.8831787109375	-50.91677093505865	-309.3706665039063	825.093017578125	-64.62529754638678	-260.1653442382813	814.61865234375	-4.095088481903124	-257.7671203613283	1398.120483398438	456.2756958007812	-266.5421447753908	1254.907592773438	564.0745239257812	-237.5294494628908	1195.997924804688	572.27783203125	-286.4597778320314	1196.873413085938	588.5789184570312	-203.4602508544924	984.0330200195312	616.8311157226562	-129.2186889648439	955.8721923828125	626.993408203125	-170.0364990234377	931.2825927734375	611.0770874023438	-102.9054336547853	870.033203125	606.4352416992188	-70.20392608642594	879.7594604492188	532.313720703125	
88	0.435	-106.6970748901369	1594.243896484375	291.5196228027344	-155.5894470214845	1623.35546875	355.5030517578124	-150.3936309814454	1616.322021484375	218.0982360839843	-336.0932006835939	1437.75390625	288.7605590820312	-396.2070922851564	1269.40380859375	287.3378906249999	-403.8286132812501	1229.1591796875	266.3959960937499	-409.1270446777345	1221.942260742188	316.1390686035156	-399.9807739257814	1165.104736328125	282.5868225097656	-377.0890197753907	1099.015747070312	283.5426635742187	-413.6078491210939	1064.753173828125	263.6582336425781	-414.7780151367189	1062.014282226562	314.0621948242187	-419.0038452148439	1002.333557128906	284.2428894042968	-398.9677124023439	953.2031860351562	255.0068054199218	-401.9700012207032	949.6412353515625	306.4030151367187	-414.5301818847657	891.8533935546875	275.8305053710937	-186.6070251464844	683.195556640625	79.73628234863278	-205.8911743164063	608.4190063476562	96.00844573974605	-160.3700103759766	627.8422241210938	89.03742218017575	-139.2332458496094	361.2469787597656	85.96867370605466	-191.8590393066407	304.7487487792969	104.4940414428711	-142.4825592041016	300.21484375	94.97950744628903	-222.3775939941407	113.3821716308594	190.115493774414	-5.53123092651371	71.76600646972656	181.6309661865234	-54.38923263549806	48.0185432434082	89.85500335693358	-355.5616149902345	691.928955078125	456.7043151855468	-307.4773559570314	629.427001953125	465.3288574218749	-353.5690002441407	631.8609008789062	445.7995300292968	-420.0230407714844	343.6497497558594	428.9414367675781	-395.2835388183594	268.6255493164062	428.3693237304687	-439.3056030273438	286.6550598144531	413.2018432617187	-489.1332092285157	73.49419403076169	298.4577331542968	-282.4157409667969	44.3500289916992	327.2105102539062	-341.7501831054688	39.09112548828123	423.7487487792968	-165.499221801758	1335.743408203125	287.5946655273437	-150.6343994140626	1191.765869140625	290.0054321289062	-264.2086486816407	1398.448364257812	114.4265060424804	-293.1336669921876	1246.519409179688	12.09397602081293	-315.9874267578126	1187.141235351562	-5.936697483062802	-267.7518005371094	1186.504272460938	8.872603416442821	-311.0344848632813	988.6483154296875	-45.68142700195318	-357.3431396484376	926.6817016601562	-28.57913017272956	-312.7492065429688	927.0744018554688	-50.89412307739263	-306.8447265625001	824.21923828125	-64.68939208984381	-257.3502197265626	813.3034057617188	-4.528236865997362	-250.9416961669924	1397.202392578125	455.9350891113281	-259.5117797851564	1254.1533203125	563.8524780273438	-230.2804412841799	1195.382934570312	572.225830078125	-279.2366333007814	1196.101196289062	588.4815063476562	-194.5939941406252	983.8241577148438	616.6942138671875	-120.0065002441408	956.509765625	626.4464721679688	-160.6030120849611	931.4739990234375	610.6734619140625	-92.80367279052751	870.9902954101562	605.5498046875	-60.38319396972672	881.4364624023438	531.41845703125	
89	0.44	-99.69474029541031	1593.281616210938	290.9028930664062	-148.5455474853517	1622.4658203125	354.8757629394531	-143.4229278564454	1615.277587890625	217.4735412597656	-329.1234741210939	1436.924560546875	288.3900451660156	-389.4736938476564	1268.701416015625	286.9353637695312	-397.1369628906251	1228.464111328125	265.9630737304687	-402.5288696289064	1221.229370117188	315.6939697265624	-393.396209716797	1164.396606445312	282.1252441406249	-370.5969543457032	1098.249145507812	283.0552978515624	-407.0072631835939	1064.0576171875	263.1051635742187	-408.271453857422	1061.395629882812	313.5114135742187	-412.6048583984376	1001.683837890625	283.7760925292968	-392.6091918945314	952.5184936523438	254.5922851562499	-395.6980285644532	949.18310546875	306.0008544921874	-408.4344482421876	891.31787109375	275.6423339843749	-179.8323669433594	681.8651733398438	80.302619934082	-199.0176544189454	607.1691284179688	97.00016021728511	-153.5520324707032	626.597900390625	89.8750305175781	-127.7995376586914	358.3045654296875	86.29428863525388	-178.4208374023438	299.9835205078125	104.5737838745117	-129.0462951660157	297.1407165527344	94.9783020019531	-202.5517120361328	107.3058547973633	189.1050415039062	15.66160202026363	73.25672149658203	180.2794494628906	-32.3871421813965	48.20748138427734	88.46506500244141	-351.109832763672	692.069091796875	456.9869384765624	-303.502410888672	629.121337890625	465.3522644042968	-349.6281738281251	631.9724731445312	445.9527893066406	-418.3904418945313	344.142578125	428.8818359374999	-394.0774536132813	268.9823303222656	428.2698974609374	-438.0193176269532	287.2546081542969	413.1690063476562	-488.9352416992188	74.19189453124997	298.4488220214843	-282.3665161132813	44.3367576599121	327.1809082031249	-341.6710205078126	39.09434509277342	423.7352294921874	-158.6930999755861	1334.612426757812	287.2471008300781	-144.089813232422	1190.613891601562	289.7973937988281	-257.3885192871095	1397.3916015625	114.0173034667968	-287.2602233886719	1245.469116210938	11.81740951538081	-310.4345092773438	1186.147705078125	-6.066349506378231	-262.1702880859376	1185.353271484375	8.538672447204542	-306.9508972167969	987.7866821289062	-45.63551330566412	-353.6436462402344	926.1882934570312	-28.26319503784186	-309.2005310058594	926.2454223632812	-50.87279129028326	-304.1978149414063	823.3345336914062	-64.73619842529303	-254.4229888916016	811.9947509765625	-4.939910411834764	-244.1086730957033	1396.236206054688	455.5652770996093	-252.4790191650393	1253.341796875	563.5858154296875	-223.0296020507814	1194.710693359375	572.1243896484375	-272.0114746093752	1195.2724609375	588.3360595703125	-185.7547760009767	983.5725708007812	616.504638671875	-110.8385314941408	957.0994262695312	625.8641967773438	-151.2046051025392	931.627685546875	610.22705078125	-82.75749206542986	871.9085083007812	604.64453125	-50.63399124145523	883.0465087890625	530.4979858398438	
